# xmcd
#
# Track frame offsets: 
#        150
#        4162
#        6923
#        11677
#        18113
#        28084
#        31550
#        34404
#        38080
#        46553
#        50997
#        55446
#        59707
#        62224
#        66816
#        69322
#        73823
#        76165
#        80373
#        82809
#        85518
#        88449
#        93047
#        95989
#        107608
#        119002
#        131112
#        135812
#        141063
#        146202
#        150426
#        154741
#        158678
#        176891
#        182480
#        184388
#        185397
#        187976
#        190805
#        193104
#        196287
#        203798
#        212060
#        217398
#        230220
#        239621
#
# Disc length: 3339 seconds
#
# Revision: 2
# Processed by: cddbd v1.5.2PL0 Copyright (c) Steve Scherf et al.
# Submitted via: ExactAudioCopy v1.3
#
DISCID=930d092e
DTITLE=Mark Galbo - Beginning Fingerstyle Blues Guitar
DYEAR=1993
DGENRE=Blues
TTITLE0=Introduction
TTITLE1=Tuning
TTITLE2=Thumb and Finger Patterns for A Chord
TTITLE3=Combining Thumb and Fingers Patterns on the A Chord
TTITLE4=D and E Chord Patterns
TTITLE5=Blues in A
TTITLE6=Blues in G
TTITLE7=Blues in E
TTITLE8=Melody Note for A, D and E Chords
TTITLE9=Blues in A with Melody Notes
TTITLE10=G Chord Melody Notes
TTITLE11=Blues in G with Melody Notes
TTITLE12=Blues in E with Melody Notes
TTITLE13=Eigth Notes
TTITLE14=Blues in G with Mixed Rhythms
TTITLE15=Dotted Rhythms
TTITLE16=Blues in G with Dotted Quarter Notes
TTITLE17=Syncopation
TTITLE18=Blues in G with Syncopations
TTITLE19=Blues in E with Syncopations
TTITLE20=Blue Notes
TTITLE21=Blues in E with Blue Notes
TTITLE22=Blues in A with Blue Notes
TTITLE23=Hammerons
TTITLE24=Pulloffs
TTITLE25=Slides
TTITLE26=Double Stops
TTITLE27=Bends
TTITLE28=Brushstroking
TTITLE29=Heel Damping
TTITLE30=Blues in G with Walking Bass
TTITLE31=Blues in E with Walking Bass
TTITLE32=Chord Inversions
TTITLE33=Vamps
TTITLE34=Connecting Vamps #1
TTITLE35=Connecting Vamps #2
TTITLE36=Connecting Vamps #3
TTITLE37=Connecting Vamps #4
TTITLE38=Connecting Vamps #5
TTITLE39=Vamps in E
TTITLE40=Singing the Blues
TTITLE41=M&O Blues
TTITLE42=Beekman Blues
TTITLE43=Big Road Blues
TTITLE44=32-20 Blues
TTITLE45=Black Rat Swing
EXTD=
EXTT0=
EXTT1=
EXTT2=
EXTT3=
EXTT4=
EXTT5=
EXTT6=
EXTT7=
EXTT8=
EXTT9=
EXTT10=
EXTT11=
EXTT12=
EXTT13=
EXTT14=
EXTT15=
EXTT16=
EXTT17=
EXTT18=
EXTT19=
EXTT20=
EXTT21=
EXTT22=
EXTT23=
EXTT24=
EXTT25=
EXTT26=
EXTT27=
EXTT28=
EXTT29=
EXTT30=
EXTT31=
EXTT32=
EXTT33=
EXTT34=
EXTT35=
EXTT36=
EXTT37=
EXTT38=
EXTT39=
EXTT40=
EXTT41=
EXTT42=
EXTT43=
EXTT44=
EXTT45=
PLAYORDER=
